<svg xmlns="http://www.w3.org/2000/svg" xmlns:xlink="http://www.w3.org/1999/xlink" viewBox="0 0 64 64"><defs><style>.cls-1{fill:url(#linear-gradient);}.cls-2{fill:url(#linear-gradient-2);}.cls-3{fill:url(#linear-gradient-3);}.cls-4{fill:#5b8dc9;}.cls-5{fill:url(#linear-gradient-4);}.cls-6{fill:url(#linear-gradient-5);}.cls-7{fill:#c7cdd8;}.cls-8{fill:url(#linear-gradient-6);}.cls-9{fill:#cf4055;}.cls-10{fill:url(#linear-gradient-7);}.cls-11{fill:#dd8b37;}.cls-12{fill:url(#linear-gradient-9);}.cls-13{fill:url(#linear-gradient-10);}</style><linearGradient id="linear-gradient" x1="32" y1="48" x2="32" y2="34" gradientUnits="userSpaceOnUse"><stop offset="0" stop-color="#7aa8d7"/><stop offset="1" stop-color="#c3d2e7"/></linearGradient><linearGradient id="linear-gradient-2" x1="52" y1="50" x2="52" y2="38" xlink:href="#linear-gradient"/><linearGradient id="linear-gradient-3" x1="12" y1="50" x2="12" y2="38" xlink:href="#linear-gradient"/><linearGradient id="linear-gradient-4" y1="63" y2="50" xlink:href="#linear-gradient"/><linearGradient id="linear-gradient-5" x1="32" y1="28" x2="32" y2="1" gradientUnits="userSpaceOnUse"><stop offset="0" stop-color="#d4d8e1"/><stop offset="1" stop-color="#f3f4f5"/></linearGradient><linearGradient id="linear-gradient-6" x1="32" y1="16" x2="32" y2="6" gradientUnits="userSpaceOnUse"><stop offset="0" stop-color="#da5466"/><stop offset="1" stop-color="#f4929c"/></linearGradient><linearGradient id="linear-gradient-7" x1="11.81" y1="16" x2="11.81" y2="6" gradientUnits="userSpaceOnUse"><stop offset="0" stop-color="#e9a254"/><stop offset="1" stop-color="#f4bb79"/></linearGradient><linearGradient id="linear-gradient-9" x1="49.97" y1="11" x2="56.02" y2="11" xlink:href="#linear-gradient"/><linearGradient id="linear-gradient-10" y1="63" y2="48" xlink:href="#linear-gradient"/></defs><title>Feedback Audients</title><g id="Feedback_Audients" data-name="Feedback Audients"><path class="cls-1" d="M32,48a6,6,0,0,1-6-6V40a6,6,0,0,1,12,0v2A6,6,0,0,1,32,48Z"/><path class="cls-2" d="M52,50a5,5,0,0,1-5-5V43a5,5,0,0,1,10,0v2A5,5,0,0,1,52,50Z"/><path class="cls-3" d="M12,50a5,5,0,0,1-5-5V43a5,5,0,0,1,10,0v2A5,5,0,0,1,12,50Z"/><path class="cls-4" d="M38,40v2a6,6,0,0,1-12,0V40a6,6,0,0,0,12,0Z"/><path class="cls-4" d="M57,43v2a5,5,0,0,1-10,0V43a5,5,0,0,0,10,0Z"/><path class="cls-4" d="M17,43v2A5,5,0,0,1,7,45V43a5,5,0,0,0,10,0Z"/><path class="cls-5" d="M63,63H1l1.2-5.2A10.07,10.07,0,0,1,20,54a10,10,0,0,1,1.32,2.37c21.37,0,21.32.09,21.32,0,3.66-9.16,17-8.1,19.14,1.46Z"/><path class="cls-6" d="M1,4V18a3,3,0,0,0,3,3H28l4,7,4-7H60a3,3,0,0,0,3-3V4a3,3,0,0,0-3-3H4A3,3,0,0,0,1,4Z"/><path class="cls-7" d="M63,15v3a3,3,0,0,1-3,3H36l-4,7-4-7H4a3,3,0,0,1-3-3V15a3,3,0,0,0,3,3H60A3,3,0,0,0,63,15Z"/><path class="cls-8" d="M32,7.06A3.5,3.5,0,0,0,26,9.5C26,13,32,16,32,16s6-3,6-6.5A3.5,3.5,0,0,0,32,7.06Z"/><path class="cls-9" d="M32,16c-2.86-1.43-6.8-4.47-5.85-7.52,1.6,5.28,10.07,5.36,11.7,0C38.81,11.54,34.85,14.58,32,16Z"/><polygon class="cls-10" points="11.81 6 13.42 9.31 17.07 9.82 14.41 12.37 15.06 16 11.81 14.27 8.56 16 9.21 12.37 6.55 9.82 10.2 9.31 11.81 6"/><polygon class="cls-10" points="11.81 6 13.42 9.31 17.07 9.82 14.41 12.37 15.06 16 11.81 14.27 8.56 16 9.21 12.37 6.55 9.82 10.2 9.31 11.81 6"/><path class="cls-11" d="M15.06,16l-3.25-1.73L8.56,16l.6-3.34a10.46,10.46,0,0,0,5.3,0Z"/><path class="cls-12" d="M55,10H53l.51-2.06A1.55,1.55,0,0,0,52,6c-2.43,4.87-2,2.84-2,10h3.72a2,2,0,0,0,1.9-1.36A11.07,11.07,0,0,0,56,11,1,1,0,0,0,55,10Z"/><rect class="cls-4" x="46" y="11" width="4" height="5"/><path class="cls-4" d="M46,63H18c1.15-5.76,1.32-7.22,2.06-9a9.73,9.73,0,0,1,1.32,2.36c0,.1-.26,0,21.32,0A10.19,10.19,0,0,1,44,54C44.64,55.52,44.67,56.12,46,63Z"/><path class="cls-13" d="M20,63l1.23-6.17a11,11,0,0,1,21.54,0L44,63Z"/><polygon class="cls-4" points="63 63 1 63 1.46 61 62.54 61 63 63"/><path d="M62.77,57.58a11,11,0,0,0-7-7.91c2.51-2,2.24-4.5,2.24-6.67a6,6,0,0,0-12,0c0,2.24-.27,4.64,2.23,6.66a10.93,10.93,0,0,0-5.4,4.22A12,12,0,0,0,36,47.71c3.21-2.28,3-5.34,3-7.71a7,7,0,0,0-14,0c0,2.22-.34,5.36,3,7.71a12,12,0,0,0-6.8,6.19,10.85,10.85,0,0,0-5.4-4.23c2.51-2,2.24-4.5,2.24-6.67A6,6,0,0,0,6,43c0,2.28-.26,4.64,2.22,6.66a11,11,0,0,0-7,7.92L0,62.78A1,1,0,0,0,2,63.22L3.17,58A9.06,9.06,0,0,1,20.3,56.46c-.07.31.21-1.11-1.28,6.34a1,1,0,0,0,2,.4L22.22,57a10,10,0,0,1,19.56,0L43,63.2a1,1,0,0,0,2-.4c-1.52-7.59-1.22-6.07-1.27-6.33,3.48-8.1,15.2-6.86,17.12,1.55l1.2,5.2A1,1,0,0,0,64,62.78ZM8,45V43a4,4,0,0,1,8,0v2a4,4,0,0,1-8,0Zm19-3V40a5,5,0,0,1,10,0v2a5,5,0,0,1-10,0Zm21,3V43a4,4,0,0,1,8,0v2a4,4,0,0,1-8,0Z"/><path d="M60,0H4A4,4,0,0,0,0,4V18a4,4,0,0,0,4,4H27.42l3.71,6.5a1,1,0,0,0,1.74,0L36.58,22H60a4,4,0,0,0,4-4V4A4,4,0,0,0,60,0Zm2,18a2,2,0,0,1-2,2H36c-.78,0-.63.09-4,6-3.37-5.89-3.22-6-4-6H4a2,2,0,0,1-2-2V4A2,2,0,0,1,4,2H60a2,2,0,0,1,2,2Z"/><path d="M32,5.76c-5.05-3.4-12.56,5.07-.45,11.13a1,1,0,0,0,.9,0C44.48,10.87,37.12,2.31,32,5.76Zm0,9.11c-9.25-5.13-3.24-9.7-.71-7.12a1,1,0,0,0,1.42,0C35.25,5.17,41.26,9.73,32,14.87Z"/><path d="M17.21,8.83,14.09,8.4,12.71,5.56a1,1,0,0,0-1.8,0L9.53,8.4c-2.84.39-3.65.27-3.93,1.11s.23,1,2.53,3.21c-.52,2.91-.85,3.58-.16,4.09s1,.09,3.84-1.41C14.73,17,14.7,17,15.06,17a1,1,0,0,0,1-1.17l-.55-3.11,2.27-2.18A1,1,0,0,0,17.21,8.83Zm-3.5,5.32c-2.2-1.18-1.59-1.18-3.8,0,.43-2.46.61-1.9-1.18-3.62,2.48-.35,2,0,3.08-2.24,1.09,2.24.61,1.89,3.08,2.24C13.08,12.27,13.28,11.7,13.71,14.15Z"/><path d="M55,9h-.72l.21-.82A2.57,2.57,0,0,0,52,5c-.81,0-.82.4-2.58,3.92A4.11,4.11,0,0,0,49.08,10H46a1,1,0,0,0-1,1v5a1,1,0,0,0,1,1h7.72a3,3,0,0,0,2.84-2A10.52,10.52,0,0,0,57,11,2,2,0,0,0,55,9Zm-8,3h2v3H47Zm6.72,3H51c0-5.72-.35-4.07,1.48-7.73.38.63-.94,2.49-.27,3.35.39.49.74.38,2.79.38C55,12.43,55.16,15,53.72,15Z"/></g></svg>