<svg xmlns="http://www.w3.org/2000/svg" viewBox="0 0 512 512"><path d="M256 4C114.6 4 0 118.6 0 260c0 119 81.2 219 191.3 247.7l.6-59.7c-10.6.6-20.7 2.1-30.7 1.5-25.6-1.5-45-12.8-55.1-37.4-6.4-15.5-15-29.2-29.7-38.3-1.7-1-3.4-2.3-4.6-3.8-1.4-1.9-3.7-4.8-3.1-6.1.9-1.9 3.9-3.3 6.3-3.8 8.4-1.6 16.1 1.3 23.3 5.4 9.5 5.3 16.4 13.4 22 22.6 4.9 8 11.2 14.9 19.5 19.5 15.2 8.6 30.9 7.1 46.8 2.3 4.8-1.5 7.6-3.8 8.1-9.1.4-3.5 1.6-7.2 3.2-10.4 3-6 6.6-11.6 10.1-17.6-1.2-.2-2.8-.6-4.4-.8-15.2-2-30.1-5.1-44.4-10.9-24.1-9.7-42.4-25.6-53.5-49.4-6.7-14.5-10-29.8-11.6-45.5-3.3-31.7 1.6-61.2 23.3-86.2 1-1.2 1.5-3.7 1-5.2-6.6-20.8-4.6-41.2 2.4-61.5.9-2.7 2.4-4 4.9-3.7 5.4.5 11 .8 16.2 2.1 17 4.2 31.9 13 46.6 22.1 2.1 1.3 5.4 1.9 7.7 1.3 39.8-9.7 79.6-9.8 119.5-.1 2.5.6 5.8-.1 8.2-1.3 12.4-6.2 24.4-13.5 37.2-19 7.4-3.2 16-3.8 24.2-5.1 1.7-.3 5 1.1 5.5 2.5 7.5 19.7 9.8 39.9 3.7 60.4-1.1 3.7-.9 6.2 1.7 9.3 12.1 14.3 19.3 30.8 21.8 49.4 2.1 15.8 1.2 31.5-1.3 47.1-3 18.9-9.3 36.6-21.2 51.9-16.5 21.1-39.1 31.8-64.4 37.7-9 2.1-18.2 3.3-27.1 4.9 3.1 4.9 6.6 9.3 9.1 14.3 5.7 11 7 23.1 7 35.3-.1 24.5-.3 37.3-.3 65.7 0 8.6.1 15.6.2 19.8C430.2 479.7 512 379.4 512 260 512 118.6 397.4 4 256 4z" /></svg>