<svg viewBox="0 0 24 24" fill="none" xmlns="http://www.w3.org/2000/svg"><path fill-rule="evenodd" clip-rule="evenodd" d="M12 3.75a8.25 8.25 0 1 0 0 16.5 8.25 8.25 0 0 0 0-16.5ZM2.25 12c0-5.385 4.365-9.75 9.75-9.75s9.75 4.365 9.75 9.75-4.365 9.75-9.75 9.75S2.25 17.385 2.25 12Z" fill="#858584"/><path fill-rule="evenodd" clip-rule="evenodd" d="M2.766 9a.75.75 0 0 1 .75-.75h16.968a.75.75 0 0 1 0 1.5H3.516a.75.75 0 0 1-.75-.75ZM2.766 15a.75.75 0 0 1 .75-.75h16.968a.75.75 0 0 1 0 1.5H3.516a.75.75 0 0 1-.75-.75Z" fill="#858584"/><path fill-rule="evenodd" clip-rule="evenodd" d="M10.038 6.104C9.408 7.574 9 9.66 9 12c0 2.342.408 4.426 1.038 5.897.315.737.672 1.285 1.03 1.638.354.35.668.472.932.472s.578-.122.933-.472c.357-.353.714-.901 1.03-1.638C14.592 16.426 15 14.342 15 12c0-2.341-.408-4.425-1.038-5.896-.315-.737-.672-1.285-1.03-1.638-.354-.35-.668-.472-.932-.472s-.578.122-.933.472c-.357.353-.714.901-1.03 1.638Zm-.025-2.705c.543-.537 1.215-.905 1.987-.905s1.444.368 1.987.905c.54.533.991 1.267 1.354 2.115C16.068 7.212 16.5 9.506 16.5 12c0 2.495-.432 4.789-1.159 6.487-.363.848-.815 1.582-1.354 2.115-.543.536-1.215.905-1.987.905s-1.444-.369-1.987-.905c-.54-.533-.991-1.267-1.354-2.115C7.932 16.79 7.5 14.495 7.5 12c0-2.494.432-4.788 1.159-6.486.363-.848.815-1.582 1.354-2.115Z" fill="#858584"/></svg>