<svg viewBox="0 0 32 32" fill="none" xmlns="http://www.w3.org/2000/svg"><path fill-rule="evenodd" clip-rule="evenodd" d="M13.528 11.118a1 1 0 0 1 1.027.05l6 4a1 1 0 0 1 0 1.664l-6 4A1 1 0 0 1 13 20v-8a1 1 0 0 1 .528-.882ZM15 13.868v4.263L18.197 16 15 13.868Z" fill="#858584"/><path fill-rule="evenodd" clip-rule="evenodd" d="M15.998 5.05h-.079l-.236.002c-.204.003-.497.007-.862.018-.73.022-1.746.068-2.897.166-2.277.192-5.175.59-7.406 1.443l-.015.006a3.013 3.013 0 0 0-1.796 2.04v.003C2.394 9.947 2 12.207 2 16.001c0 3.794.395 6.054.706 7.272l.001.004a3.012 3.012 0 0 0 1.796 2.04l.015.006c2.231.852 5.13 1.25 7.406 1.443a54.077 54.077 0 0 0 3.995.185h.162c.055 0 .134 0 .236-.002a54.077 54.077 0 0 0 3.76-.183c2.276-.192 5.174-.591 7.405-1.444l.015-.005a3.011 3.011 0 0 0 1.796-2.04v-.004c.312-1.218.707-3.478.707-7.272 0-3.795-.395-6.054-.706-7.273l-.001-.004a3.013 3.013 0 0 0-1.796-2.04l-.015-.005c-2.231-.852-5.13-1.251-7.406-1.443a54.214 54.214 0 0 0-3.995-.185h-.083Zm-.003 19.9h.301c.192-.003.473-.007.823-.018a52.086 52.086 0 0 0 2.79-.159c2.235-.189 4.895-.57 6.85-1.316a1.01 1.01 0 0 0 .598-.68C27.62 21.743 28 19.653 28 16c0-3.653-.38-5.743-.643-6.775a1.013 1.013 0 0 0-.597-.682c-1.956-.745-4.616-1.127-6.852-1.315a52.225 52.225 0 0 0-3.831-.178h-.154l-.219.001a52.225 52.225 0 0 0-3.612.176c-2.236.19-4.896.57-6.852 1.316a1.013 1.013 0 0 0-.597.682C4.38 10.258 4 12.348 4 16c0 3.653.38 5.743.643 6.775a1.013 1.013 0 0 0 .597.681c1.956.746 4.616 1.127 6.852 1.316a52.086 52.086 0 0 0 3.831.178H15.995Z" fill="#858584"/></svg>