<svg xmlns="http://www.w3.org/2000/svg" width="20" height="20" viewBox="0 0 20 20" fill="none">
<path fill-rule="evenodd" clip-rule="evenodd" d="M16.6249 5.909C16.6336 5.25809 16.3896 4.60444 15.8929 4.10777C15.3962 3.6111 14.7426 3.3671 14.0917 3.37576C14.0914 3.37576 14.0919 3.37576 14.0917 3.37576C13.7319 3.38065 13.3722 3.46274 13.0411 3.622C12.9225 3.67908 12.8074 3.74607 12.6971 3.82297C12.6547 3.85259 12.6 3.85934 12.5522 3.83951C12.5044 3.8197 12.4705 3.77627 12.4614 3.72534C12.4378 3.59299 12.4038 3.46424 12.3603 3.33998C12.2388 2.99325 12.043 2.68143 11.7921 2.42358C11.7919 2.4234 11.7923 2.42375 11.7921 2.42358C11.338 1.95719 10.7027 1.66699 10.0003 1.66699C9.29793 1.66699 8.6632 1.95666 8.20905 2.42305C8.20888 2.42322 8.20923 2.42287 8.20905 2.42305C7.95812 2.6809 7.76185 2.99325 7.64036 3.33998C7.59681 3.46424 7.56281 3.59299 7.53922 3.72534C7.53014 3.77626 7.49623 3.8197 7.44845 3.83951C7.40062 3.85934 7.34597 3.85259 7.30351 3.82297C7.19324 3.74607 7.07816 3.67908 6.95951 3.622C6.62842 3.46274 6.26951 3.38066 5.90974 3.37577C5.90949 3.37577 5.90998 3.37577 5.90974 3.37577C5.25882 3.36711 4.60444 3.6111 4.10777 4.10777C3.6111 4.60444 3.3671 5.25809 3.37576 5.909C3.37576 5.90876 3.37576 5.90925 3.37576 5.909C3.38065 6.26877 3.46274 6.62841 3.622 6.9595C3.67908 7.07816 3.74607 7.19324 3.82297 7.3035C3.85259 7.34597 3.85934 7.40062 3.83951 7.44845C3.8197 7.49623 3.77626 7.53014 3.72534 7.53922C3.59298 7.56281 3.46423 7.59682 3.33997 7.64036C2.99324 7.76186 2.68142 7.95761 2.42358 8.20854C2.4234 8.20871 2.42375 8.20837 2.42358 8.20854C1.95719 8.66268 1.66699 9.29793 1.66699 10.0003C1.66699 10.7027 1.95666 11.3375 2.42305 11.7916C2.42287 11.7914 2.42322 11.7918 2.42305 11.7916C2.6809 12.0425 2.99324 12.2388 3.33997 12.3603C3.46423 12.4038 3.59298 12.4378 3.72534 12.4614C3.77626 12.4705 3.8197 12.5044 3.83951 12.5522C3.85934 12.6 3.85259 12.6547 3.82297 12.6971C3.74607 12.8074 3.67908 12.9225 3.622 13.0412C3.46274 13.3722 3.38066 13.7312 3.37577 14.0909C3.37577 14.0912 3.37577 14.0907 3.37577 14.0909C3.36711 14.7418 3.6111 15.3962 4.10777 15.8929C4.60444 16.3896 5.25809 16.6336 5.909 16.6249C5.90876 16.6249 5.90925 16.6249 5.909 16.6249C6.26876 16.62 6.62841 16.5379 6.95949 16.3787C7.07815 16.3216 7.19323 16.2546 7.3035 16.1777C7.34597 16.1481 7.40062 16.1413 7.44845 16.1611C7.49623 16.181 7.53014 16.2244 7.53922 16.2753C7.56281 16.4077 7.59682 16.5364 7.64037 16.6607C7.76186 17.0074 7.95761 17.3192 8.20854 17.5771C8.20837 17.5769 8.20871 17.5773 8.20854 17.5771C8.66268 18.0435 9.29793 18.3337 10.0003 18.3337C10.7027 18.3337 11.3375 18.044 11.7916 17.5776C11.7914 17.5778 11.7918 17.5774 11.7916 17.5776C12.0425 17.3198 12.2388 17.0074 12.3603 16.6607C12.4038 16.5364 12.4378 16.4077 12.4614 16.2753C12.4705 16.2244 12.5044 16.181 12.5522 16.1611C12.6 16.1413 12.6547 16.1481 12.6972 16.1777C12.8074 16.2546 12.9225 16.3216 13.0412 16.3787C13.3723 16.5379 13.7312 16.62 14.0909 16.6249C14.0907 16.6249 14.0912 16.6249 14.0909 16.6249C14.7418 16.6335 15.3962 16.3896 15.8929 15.8929C16.3896 15.3962 16.6336 14.7426 16.6249 14.0916C16.6249 14.0914 16.6249 14.0919 16.6249 14.0916C16.62 13.7319 16.5379 13.3722 16.3787 13.0412C16.3216 12.9225 16.2546 12.8074 16.1777 12.6971C16.1481 12.6547 16.1413 12.6 16.1611 12.5522C16.181 12.5044 16.2244 12.4705 16.2753 12.4614C16.4077 12.4378 16.5364 12.4038 16.6607 12.3603C17.0074 12.2388 17.3192 12.043 17.5771 11.7921C17.5769 11.7923 17.5773 11.7919 17.5771 11.7921C18.0435 11.338 18.3337 10.7027 18.3337 10.0003C18.3337 9.29793 18.044 8.6632 17.5776 8.20905C17.5774 8.20888 17.5778 8.20922 17.5776 8.20905C17.3198 7.95812 17.0074 7.76186 16.6607 7.64036C16.5364 7.59682 16.4077 7.56281 16.2753 7.53922C16.2244 7.53014 16.181 7.49623 16.1611 7.44845C16.1413 7.40062 16.1481 7.34597 16.1777 7.3035C16.2546 7.19323 16.3216 7.07815 16.3787 6.95949C16.5379 6.62841 16.62 6.26876 16.6249 5.909C16.6249 5.90876 16.6249 5.90925 16.6249 5.909ZM14.7144 5.28628C14.4257 4.9976 13.9746 4.96402 13.6506 5.19001C13.159 5.53286 12.5061 5.62468 11.9138 5.37906C11.323 5.13408 10.9259 4.60853 10.8206 4.01781C10.7513 3.6289 10.4086 3.33366 10.0003 3.33366C9.59207 3.33366 9.24934 3.6289 9.18002 4.01781C9.07472 4.60852 8.67763 5.13408 8.08686 5.37906C7.49456 5.62467 6.84169 5.53286 6.3501 5.19C6.02608 4.96402 5.57496 4.9976 5.28628 5.28628C4.9976 5.57496 4.96402 6.02607 5.19001 6.35009C5.53286 6.8417 5.62467 7.49456 5.37906 8.08686C5.13408 8.67763 4.60852 9.07472 4.01781 9.18002C3.6289 9.24934 3.33366 9.59207 3.33366 10.0003C3.33366 10.4086 3.6289 10.7513 4.01781 10.8206C4.60853 10.9259 5.13408 11.323 5.37906 11.9138C5.62467 12.5061 5.53286 13.159 5.19001 13.6506C4.96403 13.9746 4.9976 14.4257 5.28628 14.7144C5.57496 15.0031 6.02607 15.0366 6.35009 14.8106C6.84169 14.4678 7.49455 14.376 8.08686 14.6216C8.67763 14.8666 9.07472 15.3921 9.18002 15.9828C9.24935 16.3717 9.59207 16.667 10.0003 16.667C10.4086 16.667 10.7513 16.3717 10.8206 15.9828C10.9259 15.3921 11.323 14.8666 11.9138 14.6216C12.5061 14.376 13.159 14.4678 13.6506 14.8106C13.9746 15.0366 14.4257 15.0031 14.7144 14.7144C15.0031 14.4257 15.0366 13.9746 14.8106 13.6506C14.4678 13.159 14.376 12.5061 14.6216 11.9138C14.8666 11.323 15.3921 10.9259 15.9828 10.8206C16.3717 10.7513 16.667 10.4086 16.667 10.0003C16.667 9.59207 16.3717 9.24934 15.9828 9.18002C15.3921 9.07472 14.8666 8.67763 14.6216 8.08686C14.376 7.49455 14.4678 6.84169 14.8106 6.35009C15.0366 6.02607 15.0031 5.57496 14.7144 5.28628Z" fill="#72767C"/>
<path fill-rule="evenodd" clip-rule="evenodd" d="M10.0003 11.667C10.9208 11.667 11.667 10.9208 11.667 10.0003C11.667 9.07985 10.9208 8.33366 10.0003 8.33366C9.07985 8.33366 8.33366 9.07985 8.33366 10.0003C8.33366 10.9208 9.07985 11.667 10.0003 11.667ZM10.0003 13.3337C11.8413 13.3337 13.3337 11.8413 13.3337 10.0003C13.3337 8.15938 11.8413 6.66699 10.0003 6.66699C8.15938 6.66699 6.66699 8.15938 6.66699 10.0003C6.66699 11.8413 8.15938 13.3337 10.0003 13.3337Z" fill="#72767C"/>
</svg>